<?xml version="1.0" encoding="UTF-8"?>
<svg width="47px" height="29px" viewBox="0 0 47 29" version="1.1" xmlns="http://www.w3.org/2000/svg" xmlns:xlink="http://www.w3.org/1999/xlink">
    <!-- Generator: sketchtool 52.6 (67491) - http://www.bohemiancoding.com/sketch -->
    <title>1CE09A1E-96F0-444E-B94C-6875C9FE3235</title>
    <desc>Created with sketchtool.</desc>
    <g id="estudante" stroke="none" stroke-width="1" fill="none" fill-rule="evenodd">
        <g id="[M]---3.0-inclui-CIEE-iniciativas" transform="translate(-110.000000, -16.000000)" fill="#004BAD" fill-rule="nonzero">
            <g id="header-mobile">
                <g id="logo-CIEE" transform="translate(110.000000, 16.000000)">
                    <path d="M43.7853382,15.7468098 L43.9235735,15.0654741 L30.5202794,15.0654741 C29.8762215,14.9677424 29.2542996,15.3442687 29.0418529,15.9605486 L28.3223382,17.5957543 L28.0500147,18.27709 L42.3262647,18.27709 C42.7820293,18.2838943 43.1968734,18.0148564 43.3768529,17.5957543 L43.6104706,16.4668813 L43.6685294,16.213715 L43.7853382,15.7468098 Z" id="Path_55"></path>
                    <path d="M42.1513971,19.6985569 L28.3803971,19.6985569 C27.6995882,19.6985569 27.4079118,19.854192 27.0775294,20.5936315 L27.0581765,20.6323673 L25.3855294,25.5960883 C25.3855294,25.6154562 25.3661765,25.6348241 25.3661765,25.654192 L24.7441176,27.4837686 L24.5105,28.2446512 L24.5105,28.2640191 L28.4785441,28.2640191 L28.4785441,28.2446512 L41.4132206,28.2446512 L41.72425,26.4150745 L41.8991176,25.4418366 C41.9229356,25.050101 41.6286248,24.7115509 41.2376618,24.6809541 L29.4876618,24.6809541 L29.9714853,22.9516756 L42.3808676,22.9516756 L42.71125,21.122099 L42.8494853,20.3826595 C42.8239501,20.0103885 42.5238345,19.7162856 42.1513971,19.6985569 Z" id="Path_56"></path>
                    <path d="M46.1768088,2.72395945 L46.0212941,3.56093023 C45.859377,4.00558841 45.4433683,4.30688039 44.9707059,4.32181276 L33.2207059,4.32181276 L33.4930294,3.56093023 L34.2125441,1.73135361 C34.6016765,0.913750745 34.9320588,0.738747764 35.6909706,0.738747764 L46.5832206,0.738747764 L46.1768088,2.72395945 Z M44.7764853,5.70246869 L33.6706618,5.70246869 C32.9898529,5.70246869 32.7175294,5.85810376 32.3677941,6.55880739 L32.3677941,6.57817531 L31.7457353,8.19401312 L31.5121176,8.85598092 L31.5314706,8.85598092 L30.2085588,12.3795587 L29.9362353,13.0802624 L29.7026176,13.7422302 L44.0569706,13.7422302 L44.1737794,13.0996303 L44.1737794,13.0802624 L44.5242059,11.2700537 C44.5256949,11.0940363 44.4564843,10.924795 44.332113,10.8003274 C44.2077417,10.6758599 44.0386313,10.6065957 43.86275,10.6080859 L34.1952647,10.6080859 L34.8760735,8.85598092 L44.9900588,8.85598092 L45.2236765,7.64894454 L45.4766471,6.36443649 C45.4413538,5.9996785 45.1423776,5.71701147 44.7764853,5.70246869 Z" id="Path_57"></path>
                    <path d="M21.9814853,10.0429577 L17.5081912,22.1894097 L15.3683088,22.0939535 C15.2515,22.0939535 15.1346912,22.0745856 15.0178824,22.0745856 C12.9870357,22.117972 11.0366537,21.2803662 9.66886765,19.777412 C8.41597357,18.3552268 7.84128709,16.4589845 8.09367647,14.5798927 C8.54086765,10.7063089 12.0617206,7.45526535 16.1071765,7.16336315 L19.9197059,7.22146691 C20.5740462,7.15739331 21.1447557,6.7493905 21.4174853,6.15069767 L22.6042353,3.32851521 L22.6235882,3.25035182 L23.2656912,1.69330948 L23.6161176,0.778175313 L17.7411176,0.700011926 C17.5529474,0.687333359 17.3639769,0.693822661 17.1771176,0.719379845 C17.0388824,0.719379845 16.8854412,0.738747764 16.7492794,0.738747764 C12.830135,0.767718597 9.0502001,2.1966247 6.09064706,4.76796661 C3.1728088,7.26309611 1.28136503,10.7510038 0.781029412,14.5591413 C0.364292035,17.8030564 1.26787744,21.0784713 3.28861765,23.6489207 C5.43976613,26.2951416 8.56837719,27.9588222 11.9635735,28.2619439 C11.9829265,28.2619439 12.9360588,28.3401073 12.9360588,28.3401073 L15.2314559,28.3594753 L21.7084706,28.3594753 C22.352328,28.3590605 22.9273821,27.9562387 23.1481912,27.35096 L29.8194265,9.01438283 L23.4018529,9.01438283 C22.7676701,9.04841646 22.2120849,9.45074961 21.9814853,10.0429577 Z M21.7285147,26.7249612 L17.5468971,26.7249612 L23.3818088,10.8190578 L27.5053676,10.8190578 L21.7285147,26.7249612 Z" id="Path_58"></path>
                    <path d="M26.4741324,0.816911151 C25.8296418,0.818145935 25.2546762,1.222481 25.0351029,1.82888491 L23.0507353,7.18065593 L29.52775,7.18065593 C30.1755102,7.1748724 30.7539981,6.7736489 30.9868235,6.16868217 L32.8737353,0.815527728 L26.4741324,0.816911151 Z M29.5083971,5.58626118 L25.3267794,5.58626118 L26.4741324,2.45211688 L30.5976912,2.45211688 L29.5083971,5.58626118 Z" id="Path_59"></path>
                </g>
            </g>
        </g>
    </g>
</svg>